<svg width="34" height="34" viewBox="0 0 34 34" fill="none" xmlns="http://www.w3.org/2000/svg">
<path d="M22.218 11.544C22.218 12.576 21.912 13.5849 21.3386 14.443C20.7652 15.3011 19.9503 15.9699 18.9968 16.3648C18.0434 16.7597 16.9942 16.8631 15.982 16.6617C14.9698 16.4604 14.0401 15.9634 13.3103 15.2337C12.5806 14.5039 12.0836 13.5742 11.8822 12.562C11.6809 11.5498 11.7842 10.5006 12.1792 9.54716C12.5741 8.5937 13.2429 7.77876 14.101 7.2054C14.9591 6.63203 15.968 6.326 17 6.326C18.3839 6.326 19.7111 6.87576 20.6897 7.85432C21.6682 8.83289 22.218 10.1601 22.218 11.544V11.544Z" stroke="white" stroke-width="2" stroke-linecap="round" stroke-linejoin="round"/>
<path d="M17 33C25.8366 33 33 25.8366 33 17C33 8.16344 25.8366 1 17 1C8.16344 1 1 8.16344 1 17C1 25.8366 8.16344 33 17 33Z" stroke="white" stroke-width="2" stroke-linecap="round" stroke-linejoin="round"/>
<path d="M8.24194 23.1C8.36694 21.0905 9.18144 19.1857 10.5479 17.707" stroke="white" stroke-width="2" stroke-linecap="round" stroke-linejoin="round"/>
<path d="M23.452 17.711C24.8177 19.1886 25.6321 21.0919 25.758 23.1" stroke="white" stroke-width="2" stroke-linecap="round" stroke-linejoin="round"/>
<path d="M25.758 23.1C24.7742 24.511 23.4641 25.6635 21.9392 26.4593C20.4142 27.2551 18.7196 27.6707 16.9995 27.6707C15.2794 27.6707 13.5847 27.2551 12.0598 26.4593C10.5348 25.6635 9.22472 24.511 8.24097 23.1" stroke="white" stroke-width="2" stroke-linecap="round" stroke-linejoin="round"/>
</svg>
