<svg width="190" height="50" viewBox="0 0 190 50" fill="none" xmlns="http://www.w3.org/2000/svg">
<path d="M13.666 25.4981L13.534 25.4641C8.118 24.1181 8.118 23.5301 8.118 22.2431C8.118 21.3281 8.902 18.9531 12.483 18.9531C14.789 18.9531 16.11 20.0241 16.54 20.9411L16.556 20.9741C16.9026 21.6988 17.456 22.3046 18.1464 22.7152C18.8369 23.1258 19.6335 23.3227 20.4357 23.2811C21.238 23.2395 22.0099 22.9612 22.6542 22.4814C23.2985 22.0016 23.7863 21.3417 24.056 20.5851C24.4222 19.5414 24.3589 18.395 23.88 17.3981C21.942 13.2231 17.68 10.7321 12.486 10.7321C10.8046 10.6847 9.13061 10.9741 7.56266 11.5832C5.99472 12.1923 4.56444 13.1089 3.356 14.2791L3.322 14.3131C1.2282 16.4256 0.0370707 19.2689 0 22.2431C0 30.4701 6.893 32.2781 11.454 33.4751L11.542 33.4981C17.255 34.9731 17.542 35.7111 17.542 37.6281C17.542 39.5451 15.803 41.5001 12.48 41.5001C9.736 41.5001 8.217 40.2491 7.755 39.1881C7.54648 38.6966 7.24211 38.2516 6.85967 37.8791C6.47722 37.5066 6.02438 37.214 5.5276 37.0185C5.03081 36.823 4.50004 36.7285 3.9663 36.7404C3.43256 36.7523 2.90655 36.8705 2.419 37.0881L2.325 37.1331C1.36225 37.6308 0.624734 38.4759 0.261905 39.4972C-0.100923 40.5185 -0.0619236 41.6395 0.371 42.6331C2.344 47.0501 6.985 49.7941 12.481 49.7941C14.2554 49.8391 16.0211 49.5314 17.6757 48.8889C19.3304 48.2464 20.841 47.2818 22.12 46.0511L22.152 46.0191C24.3646 43.7852 25.6228 40.779 25.661 37.6351C25.661 28.6521 18.151 26.6821 13.661 25.5051" fill="#FF7900"/>
<path d="M73.141 10.9219L73.071 10.8979C72.0497 10.5857 70.9464 10.6883 70.0001 11.1835C69.0539 11.6787 68.3407 12.5267 68.015 13.5439L61.599 33.6949L55.909 19.5779C55.6157 18.8345 55.1038 18.1975 54.4408 17.7512C53.7779 17.3048 52.9952 17.0701 52.196 17.0779C51.3861 17.0718 50.5929 17.3084 49.9187 17.7572C49.2444 18.206 48.72 18.8464 48.413 19.5959L42.789 33.6719L36.395 13.5949L36.379 13.5449C36.0394 12.5294 35.3192 11.6852 34.3699 11.1899C33.4206 10.6945 32.3162 10.5866 31.289 10.8889L31.149 10.9359C30.1653 11.3331 29.3653 12.0831 28.9054 13.0392C28.4456 13.9952 28.3592 15.0885 28.663 16.1049L38.471 46.9049C38.7111 47.6964 39.1865 48.396 39.8338 48.9108C40.4811 49.4256 41.2698 49.7312 42.095 49.7869L42.25 49.7929C43.0819 49.8113 43.899 49.571 44.5886 49.1053C45.2782 48.6397 45.8063 47.9714 46.1 47.1929L52.194 32.0929L58.294 47.2229C58.5863 47.9725 59.096 48.6176 59.7576 49.0754C60.4192 49.5331 61.2025 49.7827 62.007 49.7919H62.143L62.215 49.7859C63.041 49.7414 63.833 49.4427 64.4826 48.9308C65.1322 48.4188 65.6077 47.7186 65.844 46.9259L75.728 16.0799C76.0424 15.0511 75.9483 13.9408 75.4652 12.9796C74.9821 12.0185 74.1472 11.2804 73.134 10.9189" fill="#FF7900"/>
<path d="M115.217 40.3141C114.822 39.965 114.361 39.6975 113.862 39.5269C113.363 39.3564 112.836 39.2862 112.309 39.3204C111.783 39.3546 111.269 39.4925 110.796 39.7262C110.324 39.9599 109.902 40.2848 109.555 40.6821L109.463 40.7921C109.282 41.0196 109.051 41.202 108.788 41.325C108.525 41.4481 108.236 41.5083 107.946 41.5011C107.379 41.5032 106.835 41.2805 106.432 40.8817C106.03 40.483 105.801 39.9408 105.798 39.3741V18.9521H110.923C112.013 18.9521 113.059 18.519 113.83 17.748C114.601 16.977 115.034 15.9314 115.034 14.8411C115.034 13.7508 114.601 12.7051 113.83 11.9342C113.059 11.1632 112.013 10.7301 110.923 10.7301H105.798V6.21209C105.809 5.67195 105.712 5.135 105.513 4.63274C105.314 4.13048 105.017 3.673 104.639 3.28713C104.261 2.90126 103.809 2.59477 103.311 2.38561C102.813 2.17645 102.278 2.06884 101.738 2.06909C100.651 2.08176 99.6133 2.52502 98.8525 3.30168C98.0918 4.07834 97.6702 5.12499 97.68 6.21209V10.7361C96.6453 10.8153 95.6785 11.2822 94.9733 12.0435C94.268 12.8048 93.8762 13.8043 93.8762 14.8421C93.8762 15.8799 94.268 16.8794 94.9733 17.6407C95.6785 18.402 96.6453 18.8689 97.68 18.9481V39.3731C97.6638 42.1145 98.7356 44.7504 100.66 46.7025C102.585 48.6547 105.206 49.7636 107.947 49.7861C109.425 49.7825 110.883 49.456 112.222 48.8293C113.56 48.2026 114.744 47.2909 115.693 46.1581L115.752 46.0841C116.42 45.2372 116.737 44.1663 116.637 43.0925C116.538 42.0187 116.03 41.024 115.218 40.3141" fill="#FF7900"/>
<path d="M150.962 36.244C150.529 35.9324 150.037 35.7118 149.516 35.5956C148.995 35.4793 148.456 35.4698 147.932 35.5675C147.407 35.6653 146.907 35.8683 146.463 36.1643C146.019 36.4604 145.64 36.8433 145.348 37.29C144.465 38.6152 143.261 39.6959 141.848 40.4318C140.436 41.1678 138.86 41.5352 137.268 41.5C131.494 41.5 127.139 36.667 127.139 30.259C127.139 23.813 131.494 18.953 137.268 18.953C138.871 18.9279 140.455 19.309 141.871 20.0609C143.288 20.8128 144.49 21.9109 145.368 23.253C145.666 23.6913 146.048 24.066 146.492 24.355C146.936 24.6441 147.433 24.8419 147.954 24.9367C148.476 25.0316 149.011 25.0216 149.528 24.9075C150.045 24.7934 150.535 24.5774 150.968 24.272C151.854 23.6322 152.457 22.6741 152.652 21.5987C152.846 20.5234 152.617 19.4146 152.011 18.505L151.992 18.476C150.373 16.0652 148.179 14.0953 145.608 12.7439C143.038 11.3925 140.171 10.7021 137.267 10.735C126.9 10.735 119.083 19.135 119.083 30.263C119.083 41.391 126.9 49.791 137.267 49.791C140.171 49.8135 143.034 49.1137 145.6 47.7546C148.166 46.3955 150.354 44.4197 151.967 42.005C152.598 41.0954 152.843 39.9729 152.649 38.883C152.557 38.3537 152.36 37.8482 152.07 37.3958C151.78 36.9434 151.403 36.5532 150.961 36.248" fill="#FF7900"/>
<path d="M173.403 10.731C170.675 10.7176 167.992 11.4182 165.619 12.763V4.143C165.63 3.6026 165.533 3.06541 165.334 2.56295C165.135 2.06049 164.837 1.60288 164.459 1.21697C164.08 0.83106 163.629 0.524626 163.13 0.315647C162.632 0.106668 162.097 -0.000645502 161.556 2.921e-06C160.469 0.0126671 159.431 0.455933 158.67 1.23259C157.91 2.00925 157.488 3.0559 157.498 4.143V45.643C157.488 46.7301 157.91 47.7768 158.67 48.5534C159.431 49.3301 160.469 49.7733 161.556 49.786C162.096 49.7864 162.631 49.6789 163.129 49.4698C163.628 49.2607 164.079 48.9542 164.457 48.5683C164.835 48.1824 165.133 47.7248 165.332 47.2225C165.531 46.7202 165.627 46.1832 165.616 45.643V27.673C165.616 22.701 168.962 18.952 173.4 18.952C177.8 18.952 181.122 22.701 181.122 27.673V45.643C181.112 46.7303 181.534 47.7771 182.295 48.5538C183.056 49.3305 184.094 49.7736 185.181 49.786C185.721 49.7863 186.256 49.6786 186.754 49.4695C187.252 49.2603 187.704 48.9538 188.082 48.568C188.46 48.1821 188.757 47.7246 188.956 47.2224C189.155 46.7201 189.252 46.1832 189.241 45.643V27.673C189.241 18.014 182.432 10.731 173.4 10.731" fill="#FF7900"/>
<path d="M85.293 10.0659C83.9583 10.0812 82.6841 10.6253 81.7499 11.5787C80.8158 12.5322 80.298 13.8172 80.31 15.1519V44.9139C80.2967 45.5767 80.4158 46.2355 80.6602 46.8517C80.9047 47.4678 81.2696 48.0291 81.7336 48.5025C82.1976 48.9759 82.7515 49.352 83.3626 49.6088C83.9738 49.8655 84.6301 49.9977 85.293 49.9977C85.9559 49.9977 86.6121 49.8655 87.2233 49.6088C87.8345 49.352 88.3883 48.9759 88.8523 48.5025C89.3163 48.0291 89.6813 47.4678 89.9257 46.8517C90.1702 46.2355 90.2892 45.5767 90.276 44.9139V15.1519C90.288 13.8172 89.7701 12.5322 88.836 11.5787C87.9018 10.6253 86.6277 10.0812 85.293 10.0659" fill="#FF7900"/>
<path d="M85.293 27.2161C84.5259 27.2082 83.7933 26.8959 83.2565 26.3479C82.7196 25.8 82.4223 25.0612 82.43 24.2941V15.5291C82.4229 15.1485 82.4917 14.7704 82.6324 14.4168C82.7731 14.0631 82.9829 13.7411 83.2495 13.4694C83.5161 13.1978 83.8342 12.982 84.1852 12.8347C84.5361 12.6874 84.9129 12.6116 85.2935 12.6116C85.6741 12.6116 86.0509 12.6874 86.4019 12.8347C86.7528 12.982 87.0709 13.1978 87.3375 13.4694C87.6041 13.7411 87.8139 14.0631 87.9546 14.4168C88.0953 14.7704 88.1641 15.1485 88.157 15.5291V24.2961C88.1608 24.676 88.0898 25.053 87.9479 25.4054C87.8061 25.7579 87.5962 26.0789 87.3302 26.3503C87.0643 26.6216 86.7475 26.8379 86.3979 26.9868C86.0484 27.1357 85.6729 27.2143 85.293 27.2181" fill="white"/>
</svg>
