<svg width="26" height="26" viewBox="0 0 26 26" fill="none" xmlns="http://www.w3.org/2000/svg">
<path d="M20.674 22.601H23.674C24.027 22.601 24.3656 22.4608 24.6152 22.2112C24.8648 21.9616 25.005 21.623 25.005 21.27V17.241C25.005 16.378 23.196 15.991 23.196 15.991C23.071 15.755 21.554 9.69101 21.096 8.69101C20.8888 8.23715 20.5553 7.8525 20.1354 7.58298C19.7155 7.31346 19.227 7.17045 18.728 7.17101H15.567" stroke="#333333" stroke-width="0.5" stroke-linecap="round" stroke-linejoin="round"/>
<path d="M15.636 22.601H13.03" stroke="#333333" stroke-width="0.5" stroke-linecap="round" stroke-linejoin="round"/>
<path d="M6.651 1H14.372C14.5259 0.999869 14.6782 1.03006 14.8204 1.08885C14.9626 1.14764 15.0918 1.23387 15.2007 1.34262C15.3095 1.45138 15.3959 1.58051 15.4548 1.72265C15.5137 1.86478 15.544 2.01714 15.544 2.171V7.156" stroke="#333333" stroke-width="0.5" stroke-linecap="round" stroke-linejoin="round"/>
<path d="M20.56 22.655C20.5622 23.1323 20.4226 23.5995 20.159 23.9975C19.8954 24.3954 19.5197 24.7061 19.0793 24.8903C18.639 25.0745 18.1538 25.1238 17.6854 25.032C17.217 24.9402 16.7864 24.7115 16.4481 24.3747C16.1098 24.038 15.8791 23.6084 15.7852 23.1404C15.6913 22.6724 15.7384 22.1871 15.9205 21.7459C16.1027 21.3047 16.4117 20.9275 16.8084 20.6621C17.2051 20.3967 17.6717 20.255 18.149 20.255C18.787 20.2537 19.3993 20.5058 19.8514 20.9558C20.3035 21.4059 20.5584 22.0171 20.56 22.655V22.655Z" stroke="#333333" stroke-width="0.5" stroke-linecap="round" stroke-linejoin="round"/>
<path d="M9.83198 11.16H1.97998" stroke="#333333" stroke-width="0.5" stroke-linecap="round" stroke-linejoin="round"/>
<path d="M12.755 5.662H4.11096" stroke="#333333" stroke-width="0.5" stroke-linecap="round" stroke-linejoin="round"/>
<path d="M12.755 16.255H1V24.846H12.755V16.255Z" stroke="#333333" stroke-width="0.5" stroke-linecap="round" stroke-linejoin="round"/>
<path d="M8.37302 16.255H5.59302V19.326H8.37302V16.255Z" stroke="#333333" stroke-width="0.5" stroke-linecap="round" stroke-linejoin="round"/>
<path d="M2.54401 23.08H4.37701" stroke="#333333" stroke-width="0.5" stroke-linecap="round" stroke-linejoin="round"/>
<path d="M20.307 13.414H15.732V8.888H18.571C18.7882 8.888 18.9994 8.95919 19.1722 9.09068C19.3451 9.22217 19.47 9.4067 19.528 9.616L20.307 13.414Z" stroke="#333333" stroke-width="0.5" stroke-linecap="round" stroke-linejoin="round"/>
</svg>
