<svg width="36" height="36" viewBox="0 0 36 36" fill="none" xmlns="http://www.w3.org/2000/svg">
<path d="M7.66299 11.155C7.32024 10.8865 7.04352 10.5431 6.85404 10.151C6.66456 9.75903 6.56736 9.32884 6.56987 8.89344C6.57239 8.45804 6.67456 8.029 6.86856 7.6392C7.06255 7.24941 7.34322 6.9092 7.68905 6.64466C8.03488 6.38013 8.43669 6.19828 8.86367 6.11307C9.29066 6.02786 9.73148 6.04154 10.1524 6.15307C10.5732 6.2646 10.963 6.47102 11.2918 6.75649C11.6205 7.04197 11.8795 7.39893 12.049 7.80001" stroke="white" stroke-width="2" stroke-linecap="round" stroke-linejoin="round"/>
<path d="M31.009 5.123C30.0907 7.53813 28.4601 9.61711 26.3332 11.0842C24.2064 12.5514 21.6838 13.3374 19.1 13.338C17.2637 13.3403 15.4488 12.9448 13.78 12.1786C12.1112 11.4125 10.6282 10.294 9.43298 8.9" stroke="white" stroke-width="2" stroke-linecap="round" stroke-linejoin="round"/>
<path d="M25.837 2C26.2782 3.4909 26.4442 5.04964 26.327 6.6" stroke="white" stroke-width="2" stroke-linecap="round" stroke-linejoin="round"/>
<path d="M23.311 8.311L17.724 2.725C17.4797 2.47979 17.1867 2.28856 16.8639 2.16368C16.5411 2.03879 16.1957 1.98303 15.85 2L4.89997 2.561C4.28984 2.59278 3.71309 2.84939 3.28098 3.28131C2.84887 3.71323 2.59202 4.28988 2.55997 4.9L1.99997 15.851C1.98218 16.1964 2.03716 16.5418 2.16137 16.8646C2.28557 17.1874 2.47623 17.4806 2.72097 17.725L18.275 33.276C18.5045 33.5063 18.7773 33.689 19.0776 33.8136C19.3779 33.9383 19.6998 34.0025 20.025 34.0025C20.3501 34.0025 20.6721 33.9383 20.9724 33.8136C21.2727 33.689 21.5454 33.5063 21.775 33.276L33.275 21.776C33.5053 21.5464 33.688 21.2737 33.8126 20.9734C33.9373 20.6731 34.0015 20.3511 34.0015 20.026C34.0015 19.7008 33.9373 19.3789 33.8126 19.0786C33.688 18.7783 33.5053 18.5056 33.275 18.276L28.735 13.735" stroke="white" stroke-width="2" stroke-linecap="round" stroke-linejoin="round"/>
</svg>
