<svg width="26" height="26" viewBox="0 0 26 26" fill="none" xmlns="http://www.w3.org/2000/svg">
<path d="M10.102 8.59699L8.158 6.64999L3.698 11.27L5.187 12.76C5.10773 13.0414 5.09521 13.3375 5.15041 13.6246C5.20561 13.9117 5.32703 14.182 5.505 14.414L10.734 20.114L11.425 20.805C11.6116 21.0148 11.8498 21.172 12.116 21.2612C12.3822 21.3504 12.6671 21.3684 12.9424 21.3134C13.2177 21.2584 13.4738 21.1323 13.6853 20.9477C13.8968 20.7631 14.0563 20.5263 14.148 20.261C14.3586 20.3716 14.5925 20.4304 14.8304 20.4328C15.0682 20.4351 15.3032 20.3809 15.516 20.2745C15.7288 20.1681 15.9132 20.0127 16.054 19.821C16.1948 19.6293 16.2881 19.4068 16.326 19.172C16.8351 19.3481 17.3906 19.3348 17.8907 19.1346C18.3908 18.9345 18.802 18.5607 19.049 18.082C19.3565 18.065 19.6527 17.9606 19.9029 17.7809C20.153 17.6013 20.3467 17.354 20.4611 17.0681C20.5755 16.7822 20.6058 16.4695 20.5486 16.1669C20.4914 15.8643 20.3489 15.5844 20.138 15.36L16.162 11.702" stroke="#333333" stroke-width="0.5" stroke-linecap="round" stroke-linejoin="round"/>
<path d="M20.082 7.30901C19.4473 7.68997 18.7832 8.01968 18.096 8.29501C16.816 8.06991 15.5545 7.74969 14.322 7.33701C13.875 7.22601 9.42203 8.63701 9.08803 9.17801C8.75403 9.71901 10.158 11.171 11.426 11.009C12.694 10.847 14.569 10.23 15.117 10.778C15.117 10.778 18.359 13.667 19.585 14.749C20.613 15.657 22.528 13.023 22.972 12.534L20.082 7.30901Z" stroke="#333333" stroke-width="0.5" stroke-linecap="round" stroke-linejoin="round"/>
<path d="M5.40603 14.304L4.64003 15.069C4.51367 15.2098 4.42771 15.3822 4.39125 15.5679C4.3548 15.7536 4.36919 15.9456 4.43292 16.1238C4.49665 16.302 4.60733 16.4596 4.75328 16.5801C4.89923 16.7005 5.075 16.7792 5.26203 16.808C5.32302 17.1673 5.49715 17.4977 5.75904 17.7512C6.02094 18.0046 6.35691 18.1678 6.71803 18.217C6.80821 18.5546 6.99771 18.8572 7.26195 19.0858C7.5262 19.3144 7.85301 19.4584 8.20003 19.499C8.50003 20.347 9.49103 21.138 10.314 20.316L10.627 20.002" stroke="#333333" stroke-width="0.5" stroke-linecap="round" stroke-linejoin="round"/>
<path d="M14.148 20.267L12.514 18.633" stroke="#333333" stroke-width="0.5" stroke-linecap="round" stroke-linejoin="round"/>
<path d="M16.327 19.178L14.149 16.999" stroke="#333333" stroke-width="0.5" stroke-linecap="round" stroke-linejoin="round"/>
<path d="M19.049 18.088L16.326 15.365" stroke="#333333" stroke-width="0.5" stroke-linecap="round" stroke-linejoin="round"/>
<path d="M1 13C1 9.8174 2.26428 6.76516 4.51472 4.51472C6.76516 2.26428 9.8174 1 13 1" stroke="#333333" stroke-width="0.5" stroke-linecap="round" stroke-linejoin="round"/>
<path d="M25 13C25 16.1826 23.7357 19.2348 21.4853 21.4853C19.2348 23.7357 16.1826 25 13 25" stroke="#333333" stroke-width="0.5" stroke-linecap="round" stroke-linejoin="round"/>
</svg>
