<svg width="190" height="50" viewBox="0 0 190 50" fill="none" xmlns="http://www.w3.org/2000/svg">
<path d="M13.666 25.498L13.534 25.464C8.118 24.118 8.118 23.53 8.118 22.243C8.118 21.328 8.902 18.953 12.483 18.953C14.789 18.953 16.11 20.024 16.54 20.941L16.556 20.974C16.9026 21.6987 17.456 22.3046 18.1464 22.7152C18.8369 23.1257 19.6335 23.3226 20.4357 23.281C21.238 23.2394 22.0099 22.9612 22.6542 22.4814C23.2985 22.0015 23.7863 21.3417 24.056 20.585C24.4222 19.5413 24.3589 18.395 23.88 17.398C21.942 13.223 17.68 10.732 12.486 10.732C10.8046 10.6846 9.13061 10.974 7.56266 11.5831C5.99472 12.1923 4.56444 13.1089 3.356 14.279L3.322 14.313C1.2282 16.4255 0.0370707 19.2689 0 22.243C0 30.47 6.893 32.278 11.454 33.475L11.542 33.498C17.255 34.973 17.542 35.711 17.542 37.628C17.542 39.545 15.803 41.5 12.48 41.5C9.736 41.5 8.217 40.249 7.755 39.188C7.54648 38.6965 7.24211 38.2515 6.85967 37.879C6.47722 37.5065 6.02438 37.214 5.5276 37.0185C5.03081 36.823 4.50004 36.7284 3.9663 36.7403C3.43256 36.7523 2.90655 36.8705 2.419 37.088L2.325 37.133C1.36225 37.6307 0.624734 38.4759 0.261905 39.4971C-0.100923 40.5184 -0.0619236 41.6394 0.371 42.633C2.344 47.05 6.985 49.794 12.481 49.794C14.2554 49.839 16.0211 49.5314 17.6757 48.8888C19.3304 48.2463 20.841 47.2817 22.12 46.051L22.152 46.019C24.3646 43.7851 25.6228 40.779 25.661 37.635C25.661 28.652 18.151 26.682 13.661 25.505" fill="white"/>
<path d="M73.141 10.922L73.071 10.898C72.0497 10.5858 70.9464 10.6884 70.0001 11.1836C69.0539 11.6788 68.3407 12.5268 68.015 13.544L61.599 33.695L55.909 19.578C55.6157 18.8346 55.1038 18.1976 54.4408 17.7513C53.7779 17.3049 52.9952 17.0702 52.196 17.078C51.3861 17.0719 50.5929 17.3085 49.9187 17.7573C49.2444 18.2061 48.72 18.8465 48.413 19.596L42.789 33.672L36.395 13.595L36.379 13.545C36.0394 12.5295 35.3192 11.6853 34.3699 11.19C33.4206 10.6946 32.3162 10.5867 31.289 10.889L31.149 10.936C30.1653 11.3332 29.3653 12.0832 28.9054 13.0393C28.4456 13.9953 28.3592 15.0886 28.663 16.105L38.471 46.905C38.7111 47.6965 39.1865 48.3961 39.8338 48.9109C40.4811 49.4257 41.2698 49.7313 42.095 49.787L42.25 49.793C43.0819 49.8114 43.899 49.5711 44.5886 49.1054C45.2782 48.6397 45.8063 47.9715 46.1 47.193L52.194 32.093L58.294 47.223C58.5863 47.9726 59.096 48.6177 59.7576 49.0755C60.4192 49.5332 61.2025 49.7828 62.007 49.792H62.143L62.215 49.786C63.041 49.7415 63.833 49.4428 64.4826 48.9309C65.1322 48.4189 65.6077 47.7187 65.844 46.926L75.728 16.08C76.0424 15.0512 75.9483 13.9409 75.4652 12.9797C74.9821 12.0185 74.1472 11.2805 73.134 10.919" fill="white"/>
<path d="M115.217 40.314C114.822 39.9649 114.361 39.6974 113.862 39.5269C113.363 39.3563 112.836 39.2861 112.309 39.3203C111.783 39.3545 111.269 39.4925 110.796 39.7261C110.324 39.9598 109.902 40.2847 109.555 40.682L109.463 40.792C109.282 41.0195 109.051 41.2019 108.788 41.3249C108.525 41.448 108.236 41.5082 107.946 41.501C107.379 41.5031 106.835 41.2804 106.432 40.8816C106.03 40.4829 105.801 39.9407 105.798 39.374V18.952H110.923C112.013 18.952 113.059 18.5189 113.83 17.7479C114.601 16.977 115.034 15.9313 115.034 14.841C115.034 13.7507 114.601 12.705 113.83 11.9341C113.059 11.1631 112.013 10.73 110.923 10.73H105.798V6.212C105.809 5.67185 105.712 5.13491 105.513 4.63265C105.314 4.13038 105.017 3.67291 104.639 3.28704C104.261 2.90117 103.809 2.59467 103.311 2.38552C102.813 2.17636 102.278 2.06875 101.738 2.069C100.651 2.08166 99.6133 2.52493 98.8525 3.30159C98.0918 4.07825 97.6702 5.12489 97.68 6.212V10.736C96.6453 10.8152 95.6785 11.2821 94.9733 12.0434C94.268 12.8047 93.8762 13.8042 93.8762 14.842C93.8762 15.8798 94.268 16.8793 94.9733 17.6406C95.6785 18.4019 96.6453 18.8688 97.68 18.948V39.373C97.6638 42.1144 98.7356 44.7503 100.66 46.7025C102.585 48.6546 105.206 49.7635 107.947 49.786C109.425 49.7825 110.883 49.4559 112.222 48.8292C113.56 48.2025 114.744 47.2908 115.693 46.158L115.752 46.084C116.42 45.2371 116.737 44.1662 116.637 43.0924C116.538 42.0186 116.03 41.0239 115.218 40.314" fill="white"/>
<path d="M150.962 36.244C150.529 35.9324 150.037 35.7118 149.516 35.5956C148.995 35.4793 148.456 35.4698 147.932 35.5675C147.407 35.6653 146.907 35.8683 146.463 36.1643C146.019 36.4604 145.64 36.8433 145.348 37.29C144.465 38.6152 143.261 39.6959 141.848 40.4318C140.436 41.1678 138.86 41.5352 137.268 41.5C131.494 41.5 127.139 36.667 127.139 30.259C127.139 23.813 131.494 18.953 137.268 18.953C138.871 18.9279 140.455 19.309 141.871 20.0609C143.288 20.8128 144.49 21.9109 145.368 23.253C145.666 23.6913 146.048 24.0659 146.492 24.355C146.936 24.6441 147.433 24.8418 147.954 24.9367C148.476 25.0316 149.011 25.0216 149.528 24.9075C150.045 24.7934 150.535 24.5773 150.968 24.272C151.854 23.6322 152.457 22.6741 152.652 21.5987C152.846 20.5234 152.617 19.4146 152.011 18.505L151.992 18.476C150.373 16.0652 148.179 14.0953 145.608 12.7439C143.038 11.3925 140.171 10.7021 137.267 10.735C126.9 10.735 119.083 19.135 119.083 30.263C119.083 41.391 126.9 49.791 137.267 49.791C140.171 49.8135 143.034 49.1137 145.6 47.7546C148.166 46.3955 150.354 44.4197 151.967 42.005C152.598 41.0954 152.843 39.9729 152.649 38.883C152.557 38.3537 152.36 37.8481 152.07 37.3957C151.78 36.9433 151.403 36.5532 150.961 36.248" fill="white"/>
<path d="M173.403 10.731C170.675 10.7176 167.992 11.4182 165.619 12.763V4.143C165.63 3.6026 165.533 3.06541 165.334 2.56295C165.135 2.06049 164.837 1.60288 164.459 1.21697C164.08 0.83106 163.629 0.524626 163.13 0.315647C162.632 0.106668 162.097 -0.000645502 161.556 2.921e-06C160.469 0.0126671 159.431 0.455933 158.67 1.23259C157.91 2.00925 157.488 3.0559 157.498 4.143V45.643C157.488 46.7301 157.91 47.7768 158.67 48.5534C159.431 49.3301 160.469 49.7733 161.556 49.786C162.096 49.7864 162.631 49.6789 163.129 49.4698C163.628 49.2607 164.079 48.9542 164.457 48.5683C164.835 48.1824 165.133 47.7248 165.332 47.2225C165.531 46.7202 165.627 46.1832 165.616 45.643V27.673C165.616 22.701 168.962 18.952 173.4 18.952C177.8 18.952 181.122 22.701 181.122 27.673V45.643C181.112 46.7303 181.534 47.7771 182.295 48.5538C183.056 49.3305 184.094 49.7736 185.181 49.786C185.721 49.7863 186.256 49.6786 186.754 49.4695C187.252 49.2603 187.704 48.9538 188.082 48.568C188.46 48.1821 188.757 47.7246 188.956 47.2224C189.155 46.7201 189.252 46.1832 189.241 45.643V27.673C189.241 18.014 182.432 10.731 173.4 10.731" fill="white"/>
<path d="M85.293 10.066C83.9583 10.0813 82.6841 10.6253 81.75 11.5788C80.8159 12.5322 80.298 13.8173 80.31 15.152V44.914C80.2967 45.5768 80.4158 46.2355 80.6603 46.8517C80.9047 47.4679 81.2697 48.0292 81.7337 48.5026C82.1977 48.976 82.7515 49.3521 83.3627 49.6088C83.9739 49.8656 84.6301 49.9978 85.293 49.9978C85.9559 49.9978 86.6122 49.8656 87.2234 49.6088C87.8345 49.3521 88.3883 48.976 88.8524 48.5026C89.3164 48.0292 89.6813 47.4679 89.9258 46.8517C90.1702 46.2355 90.2893 45.5768 90.276 44.914V15.152C90.288 13.8173 89.7702 12.5322 88.836 11.5788C87.9019 10.6253 86.6277 10.0813 85.293 10.066" fill="white"/>
<path d="M85.293 27.216C84.5259 27.2081 83.7933 26.8958 83.2565 26.3478C82.7196 25.7999 82.4223 25.0611 82.43 24.294V15.529C82.4229 15.1485 82.4917 14.7703 82.6324 14.4167C82.7731 14.063 82.9829 13.741 83.2495 13.4693C83.5161 13.1977 83.8342 12.9819 84.1852 12.8346C84.5361 12.6874 84.9129 12.6115 85.2935 12.6115C85.6741 12.6115 86.0509 12.6874 86.4019 12.8346C86.7528 12.9819 87.0709 13.1977 87.3375 13.4693C87.6041 13.741 87.8139 14.063 87.9546 14.4167C88.0953 14.7703 88.1641 15.1485 88.157 15.529V24.296C88.1608 24.6759 88.0898 25.0529 87.9479 25.4053C87.8061 25.7578 87.5962 26.0789 87.3302 26.3502C87.0643 26.6215 86.7475 26.8378 86.3979 26.9867C86.0484 27.1356 85.6729 27.2142 85.293 27.218" fill="#FD7922"/>
</svg>
