<svg width="26" height="26" viewBox="0 0 26 26" fill="none" xmlns="http://www.w3.org/2000/svg">
<path d="M14.911 18.144L9.352 21.132L1.245 16.88L7.145 13.788" stroke="#333333" stroke-width="0.5" stroke-linecap="round" stroke-linejoin="round"/>
<path d="M11.428 11.644L17.138 8.644L25.244 12.897L19.604 15.897" stroke="#333333" stroke-width="0.5" stroke-linecap="round" stroke-linejoin="round"/>
<path d="M17.803 15.052L20.785 13.492C20.337 13.258 20.245 12.926 20.785 12.642L17.543 10.942C17.292 11.0699 17.0142 11.1366 16.7325 11.1366C16.4508 11.1366 16.173 11.0699 15.922 10.942L12.922 12.516" stroke="#333333" stroke-width="0.5" stroke-linecap="round" stroke-linejoin="round"/>
<path d="M8.82497 14.637L5.69897 16.277C6.23897 16.561 6.15197 16.89 5.69897 17.125L8.94197 18.825C9.19194 18.6971 9.4687 18.6304 9.74948 18.6304C10.0303 18.6304 10.307 18.6971 10.557 18.825L13.548 17.258" stroke="#333333" stroke-width="0.5" stroke-linecap="round" stroke-linejoin="round"/>
<path d="M15.234 18.257L6.75903 13.687L10.669 11.714L19.605 16.164V20.226L15.234 22.426V18.257Z" stroke="#333333" stroke-width="0.5" stroke-linecap="round" stroke-linejoin="round"/>
<path d="M14.911 20.207L9.352 23.123L1.245 18.871" stroke="#333333" stroke-width="0.5" stroke-linecap="round" stroke-linejoin="round"/>
<path d="M25.244 14.876L19.604 17.835" stroke="#333333" stroke-width="0.5" stroke-linecap="round" stroke-linejoin="round"/>
<path d="M19.604 19.73L25.244 16.771V13.018" stroke="#333333" stroke-width="0.5" stroke-linecap="round" stroke-linejoin="round"/>
<path d="M1.245 16.993V20.747L9.352 24.999L14.911 22.083" stroke="#333333" stroke-width="0.5" stroke-linecap="round" stroke-linejoin="round"/>
<path d="M10.076 4.82501L11.616 6.57001L13.156 4.82501" stroke="#333333" stroke-width="0.5" stroke-linecap="round" stroke-linejoin="round"/>
<path d="M1.245 9.045L3.202 11.267L5.161 9.045" stroke="#333333" stroke-width="0.5" stroke-linecap="round" stroke-linejoin="round"/>
<path d="M3.20203 4.26601V11.082" stroke="#333333" stroke-width="0.5" stroke-linecap="round" stroke-linejoin="round"/>
<path d="M21.359 3.183V7.311" stroke="#333333" stroke-width="0.5" stroke-linecap="round" stroke-linejoin="round"/>
<path d="M11.621 1V6.486" stroke="#333333" stroke-width="0.5" stroke-linecap="round" stroke-linejoin="round"/>
</svg>
