<svg width="14" height="22" viewBox="0 0 14 22" fill="none" xmlns="http://www.w3.org/2000/svg">
<path d="M6.71 20.608C6.27 14.706 0.728998 12.988 0.376998 8.225C0.310819 7.32093 0.427657 6.41281 0.720526 5.55495C1.01339 4.69708 1.47628 3.9071 2.08149 3.23224C2.68669 2.55739 3.4218 2.01153 4.24282 1.62732C5.06385 1.2431 5.95394 1.02843 6.85984 0.996132C7.76575 0.963836 8.66886 1.11458 9.51516 1.43935C10.3615 1.76413 11.1336 2.25625 11.7853 2.88629C12.437 3.51634 12.955 4.27136 13.3082 5.10619C13.6614 5.94102 13.8426 6.83852 13.841 7.745C13.841 12.884 7.941 14.516 7.489 20.612C7.49168 20.6649 7.48356 20.7179 7.46515 20.7676C7.44674 20.8173 7.4184 20.8627 7.38188 20.9012C7.34535 20.9396 7.3014 20.9702 7.25268 20.9911C7.20397 21.012 7.15151 21.0228 7.0985 21.0228C7.04549 21.0228 6.99303 21.012 6.94431 20.9911C6.8956 20.9702 6.85164 20.9396 6.81512 20.9012C6.77859 20.8627 6.75026 20.8173 6.73185 20.7676C6.71343 20.7179 6.70532 20.6649 6.708 20.612L6.71 20.608Z" fill="#FF7900"/>
<path d="M8.66201 7.62999C8.6626 7.93925 8.57144 8.24174 8.40006 8.49916C8.22867 8.75659 7.98477 8.95739 7.69922 9.07615C7.41368 9.19491 7.09931 9.22629 6.79593 9.16632C6.49254 9.10636 6.21376 8.95773 5.99487 8.73926C5.77598 8.52079 5.62682 8.2423 5.56626 7.93902C5.50571 7.63575 5.53649 7.32133 5.6547 7.03555C5.77291 6.74978 5.97324 6.50549 6.23034 6.33361C6.48744 6.16174 6.78975 6.06999 7.09901 6.06999C7.51294 6.07026 7.90989 6.2346 8.20287 6.52702C8.49584 6.81943 8.66095 7.21606 8.66201 7.62999V7.62999Z" fill="white"/>
</svg>
