<svg width="53" height="35" viewBox="0 0 53 35" fill="none" xmlns="http://www.w3.org/2000/svg">
<path d="M33.315 6.83801H19.824V28.878H33.315V6.83801Z" fill="#F26122"/>
<path d="M21.277 17.858C21.266 15.7409 21.736 13.6489 22.6515 11.7399C23.567 9.83088 24.9041 8.15476 26.562 6.838C24.4941 5.21187 22.0103 4.20042 19.3946 3.91928C16.779 3.63814 14.137 4.09866 11.7707 5.24818C9.4044 6.39771 7.4093 8.18985 6.01348 10.4197C4.61766 12.6496 3.87744 15.2273 3.87744 17.858C3.87744 20.4887 4.61766 23.0664 6.01348 25.2963C7.4093 27.5261 9.4044 29.3183 11.7707 30.4678C14.137 31.6173 16.779 32.0779 19.3946 31.7967C22.0103 31.5156 24.4941 30.5041 26.562 28.878C24.9041 27.5612 23.567 25.8851 22.6515 23.9761C21.736 22.0671 21.266 19.9751 21.277 17.858V17.858Z" fill="#EA1D25"/>
<path d="M48.286 26.541H48.193V25.997H48.325L48.497 26.38L48.656 25.997H48.788V26.538H48.695V26.129L48.55 26.486H48.444L48.286 26.129V26.539V26.541ZM47.886 26.541H47.811V26.09H47.625V25.997H48.088V26.09H47.888V26.538L47.886 26.541Z" fill="#F69E1E"/>
<path d="M49.237 17.858C49.2354 20.4869 48.4947 23.0624 47.0994 25.2904C45.7041 27.5184 43.7105 29.3093 41.3461 30.4584C38.9816 31.6076 36.3418 32.0687 33.7278 31.7893C31.1138 31.5098 28.631 30.501 26.563 28.878C29.4819 26.5797 31.3692 23.2166 31.8102 19.5277C32.2512 15.8388 31.2099 12.1257 28.915 9.20401C28.2299 8.3231 27.4401 7.52892 26.563 6.83901C28.631 5.21605 31.1136 4.20725 33.7275 3.92776C36.3414 3.64827 38.9812 4.10936 41.3456 5.25839C43.71 6.40742 45.7037 8.19809 47.099 10.426C48.4944 12.6539 49.2352 15.2292 49.237 17.858Z" fill="#F69E1E"/>
</svg>
