<svg width="34" height="32" viewBox="0 0 34 32" fill="none" xmlns="http://www.w3.org/2000/svg">
<path d="M23.678 1H4C3.20435 1 2.44129 1.31607 1.87868 1.87868C1.31607 2.44129 1 3.20435 1 4V17.7C1 18.4957 1.31607 19.2587 1.87868 19.8213C2.44129 20.3839 3.20435 20.7 4 20.7H10.052V26.455L15.807 20.7H23.678C24.4736 20.7 25.2367 20.3839 25.7993 19.8213C26.3619 19.2587 26.678 18.4957 26.678 17.7V4C26.678 3.20435 26.3619 2.44129 25.7993 1.87868C25.2367 1.31607 24.4736 1 23.678 1V1Z" stroke="white" stroke-width="2" stroke-linecap="round" stroke-linejoin="round"/>
<path d="M18.007 25.094L23.762 30.849V25.094H29.815C30.6106 25.094 31.3737 24.778 31.9363 24.2153C32.4989 23.6527 32.815 22.8897 32.815 22.094V8.40002C32.815 7.60437 32.4989 6.84131 31.9363 6.2787C31.3737 5.7161 30.6106 5.40002 29.815 5.40002" stroke="white" stroke-width="2" stroke-linecap="round" stroke-linejoin="round"/>
<path d="M8.84096 10.969C8.84056 11.2986 8.74246 11.6207 8.55905 11.8946C8.37563 12.1685 8.11515 12.3818 7.81051 12.5077C7.50587 12.6335 7.17075 12.6663 6.84752 12.6017C6.52428 12.5372 6.22744 12.3782 5.99451 12.145C5.76157 11.9118 5.603 11.6148 5.53884 11.2915C5.47468 10.9682 5.50781 10.6331 5.63404 10.3286C5.76027 10.0241 5.97394 9.76387 6.24803 9.58079C6.52212 9.39771 6.84434 9.29999 7.17396 9.29999C7.61599 9.30025 8.03985 9.47597 8.35241 9.78853C8.66498 10.1011 8.84069 10.525 8.84096 10.967" fill="white"/>
<path d="M15.5059 10.969C15.5054 11.2983 15.4072 11.6201 15.2238 11.8936C15.0404 12.1672 14.7801 12.3803 14.4757 12.5059C14.1712 12.6316 13.8364 12.6642 13.5135 12.5997C13.1905 12.5351 12.8939 12.3763 12.6612 12.1433C12.4285 11.9103 12.27 11.6135 12.2059 11.2905C12.1417 10.9675 12.1747 10.6327 12.3008 10.3284C12.4268 10.0242 12.6402 9.76409 12.914 9.58104C13.1877 9.39799 13.5096 9.30019 13.8389 9.29999C14.2811 9.29999 14.7051 9.47562 15.0177 9.78824C15.3303 10.1009 15.5059 10.5249 15.5059 10.967" fill="white"/>
<path d="M22.171 10.969C22.1706 11.2984 22.0726 11.6204 21.8894 11.8942C21.7062 12.1679 21.4459 12.3813 21.1415 12.5073C20.8371 12.6333 20.5022 12.6662 20.1791 12.602C19.8559 12.5378 19.5591 12.3792 19.326 12.1464C19.0929 11.9136 18.934 11.617 18.8694 11.2939C18.8048 10.9709 18.8374 10.6359 18.963 10.3314C19.0886 10.0268 19.3016 9.7663 19.5752 9.58273C19.8488 9.39917 20.1706 9.30078 20.5 9.29999C20.9422 9.29999 21.3662 9.47562 21.6788 9.78824C21.9914 10.1009 22.167 10.5249 22.167 10.967" fill="white"/>
</svg>
