<svg width="23" height="28" viewBox="0 0 23 28" fill="none" xmlns="http://www.w3.org/2000/svg">
<path d="M6.577 26.174L7.039 23.267H1.146L4.529 1.78198C4.53779 1.71538 4.57049 1.65426 4.621 1.60998C4.67412 1.56894 4.7389 1.54583 4.806 1.54398H13.011C15.746 1.54398 17.622 2.11198 18.611 3.23498C19.0494 3.70608 19.3548 4.28515 19.496 4.91298C19.6501 5.67594 19.6501 6.46201 19.496 7.22498V7.88598L19.958 8.14998C20.31 8.32537 20.6277 8.56246 20.896 8.84998C21.2991 9.33629 21.5597 9.92467 21.649 10.55C21.7479 11.3696 21.7121 12.1999 21.543 13.008C21.3689 13.9894 21.0247 14.9329 20.526 15.796C20.1225 16.4879 19.5772 17.0866 18.926 17.553C18.2709 17.9998 17.5415 18.3266 16.772 18.518C15.9081 18.7359 15.0199 18.8424 14.129 18.835H13.482C13.0283 18.835 12.5888 18.9938 12.24 19.284C11.8894 19.5795 11.6593 19.9933 11.593 20.447V20.711L10.792 25.844V26.044C10.8015 26.0787 10.8015 26.1153 10.792 26.15H10.712L6.577 26.174Z" fill="#253D80"/>
<path d="M20.397 7.35699L20.318 7.84599C19.231 13.395 15.521 15.325 10.791 15.325H8.39099C8.11088 15.3246 7.83982 15.4242 7.62662 15.6059C7.41341 15.7876 7.27205 16.0394 7.22799 16.316L5.99499 24.138L5.63799 26.357C5.62467 26.4449 5.63038 26.5346 5.65474 26.6202C5.6791 26.7057 5.72153 26.7849 5.77918 26.8526C5.83682 26.9203 5.90833 26.9749 5.98886 27.0125C6.0694 27.0502 6.15708 27.0701 6.24599 27.071H10.531C10.7766 27.0706 11.014 26.9825 11.2004 26.8227C11.3869 26.6628 11.5101 26.4417 11.548 26.199V25.988L12.354 20.874V20.597C12.3887 20.356 12.5087 20.1355 12.6922 19.9755C12.8757 19.8155 13.1105 19.7266 13.354 19.725H14.054C18.19 19.725 21.44 18.047 22.378 13.118C22.6284 12.287 22.6823 11.4091 22.5353 10.5537C22.3883 9.69828 22.0445 8.88875 21.531 8.18899C21.2016 7.85086 20.8184 7.56971 20.397 7.35699V7.35699Z" fill="#189BD7"/>
<path d="M19.261 6.908L18.761 6.776L18.204 6.67C17.5043 6.56516 16.7974 6.51634 16.09 6.524H9.64198C9.49141 6.51971 9.34198 6.55124 9.20598 6.616C9.05456 6.68634 8.92317 6.79347 8.82378 6.92762C8.72439 7.06177 8.66017 7.21867 8.63698 7.384L7.31598 16.065V16.316C7.35983 16.0392 7.50109 15.7871 7.71432 15.6053C7.92755 15.4234 8.19872 15.3237 8.47898 15.324H10.879C15.609 15.324 19.322 13.395 20.406 7.845L20.485 7.356C20.2005 7.20893 19.9045 7.0852 19.6 6.986L19.261 6.908Z" fill="#242E65"/>
<path d="M8.63799 7.38399C8.6614 7.21911 8.72561 7.06269 8.82481 6.92892C8.924 6.79516 9.05502 6.68828 9.20599 6.61799C9.34199 6.55323 9.49143 6.52169 9.64199 6.52599H16.09C16.7974 6.51799 17.5043 6.56648 18.204 6.67099L18.759 6.77699L19.259 6.90899L19.51 6.98799C19.8145 7.08718 20.1105 7.21092 20.395 7.35799C20.6063 6.5451 20.6208 5.69355 20.4373 4.87393C20.2539 4.05431 19.8777 3.29022 19.34 2.64499C18.019 1.24499 15.852 0.64499 13.024 0.64499H4.80599C4.52588 0.644599 4.25483 0.744205 4.04162 0.92588C3.82842 1.10755 3.68706 1.35937 3.64299 1.63599L0.220993 23.319C0.205972 23.42 0.212792 23.523 0.240992 23.6212C0.269192 23.7193 0.318116 23.8103 0.384463 23.8879C0.45081 23.9655 0.533036 24.028 0.625592 24.0712C0.718148 24.1143 0.818881 24.1371 0.920993 24.138H5.99499L7.31299 16.065L8.63799 7.38399Z" fill="#253D80"/>
</svg>
