<svg width="22" height="21" viewBox="0 0 22 21" fill="none" xmlns="http://www.w3.org/2000/svg">
<path d="M6.45003 14.549C11.369 19.466 17.391 21.416 19.905 18.906C20.3127 18.4847 20.6105 17.9696 20.772 17.406C20.9476 16.8287 21.0237 16.2258 20.997 15.623C19.6606 14.9165 18.3664 14.1329 17.121 13.276C16.8347 13.0854 16.486 13.0123 16.1473 13.0716C15.8085 13.131 15.5055 13.3184 15.301 13.595L14.569 14.579C14.3011 14.9421 13.9031 15.1875 13.4584 15.2638C13.0136 15.34 12.5566 15.2412 12.183 14.988C10.9764 14.1592 9.8495 13.2198 8.81703 12.182C7.77894 11.1495 6.83922 10.0227 6.01003 8.81601C5.75724 8.44243 5.65855 7.98563 5.73458 7.54102C5.8106 7.09641 6.05547 6.69836 6.41803 6.43001L7.40203 5.69801C7.67916 5.49419 7.867 5.19134 7.92642 4.8525C7.98584 4.51366 7.91227 4.16496 7.72103 3.87901C6.86593 2.63391 6.08298 1.34079 5.37603 0.00600547C4.77355 -0.0215907 4.17073 0.0527892 3.59303 0.226005C3.02944 0.38801 2.51432 0.686091 2.09303 1.09401C-0.415973 3.60601 1.53303 9.63201 6.45003 14.549Z" fill="#FF7900"/>
</svg>
