<svg width="26" height="26" viewBox="0 0 26 26" fill="none" xmlns="http://www.w3.org/2000/svg">
<path d="M20.2 3.35899H5.8L1 7.02499V8.15899H25V7.02499L20.2 3.35899Z" stroke="#333333" stroke-width="0.5" stroke-linecap="round" stroke-linejoin="round"/>
<path d="M20.2 8.15899V7.19899L17.8 4.31899V3.35899" stroke="#333333" stroke-width="0.5" stroke-linecap="round" stroke-linejoin="round"/>
<path d="M15.4 8.15899V7.19899L14.44 4.31899V3.35899" stroke="#333333" stroke-width="0.5" stroke-linecap="round" stroke-linejoin="round"/>
<path d="M5.79999 8.15899V7.19899L8.19999 4.31899V3.35899" stroke="#333333" stroke-width="0.5" stroke-linecap="round" stroke-linejoin="round"/>
<path d="M10.6 8.15899V7.19899L11.56 4.31899V3.35899" stroke="#333333" stroke-width="0.5" stroke-linecap="round" stroke-linejoin="round"/>
<path d="M20.2 1H5.79999V3.359H20.2V1Z" stroke="#333333" stroke-width="0.5" stroke-linecap="round" stroke-linejoin="round"/>
<path d="M1 8.159V10.759C1.02742 11.3867 1.28907 11.9814 1.73336 12.4256C2.17764 12.8699 2.77229 13.1316 3.4 13.159C4.03079 13.1409 4.63077 12.8822 5.07699 12.436C5.52321 11.9898 5.78188 11.3898 5.8 10.759C5.82742 11.3867 6.08907 11.9814 6.53336 12.4256C6.97764 12.8699 7.57229 13.1316 8.2 13.159C8.82771 13.1316 9.42236 12.8699 9.86664 12.4256C10.3109 11.9814 10.5726 11.3867 10.6 10.759C10.611 11.3921 10.8675 11.9961 11.3152 12.4438C11.7629 12.8915 12.3669 13.1479 13 13.159C13.6236 13.1196 14.2114 12.8541 14.6533 12.4122C15.0951 11.9704 15.3606 11.3826 15.4 10.759C15.4274 11.3867 15.6891 11.9814 16.1334 12.4256C16.5776 12.8699 17.1723 13.1316 17.8 13.159C18.4277 13.1316 19.0224 12.8699 19.4666 12.4256C19.9109 11.9814 20.1726 11.3867 20.2 10.759C20.2274 11.3867 20.4891 11.9814 20.9334 12.4256C21.3776 12.8699 21.9723 13.1316 22.6 13.159C23.2277 13.1316 23.8224 12.8699 24.2666 12.4256C24.7109 11.9814 24.9726 11.3867 25 10.759V8.159H1Z" stroke="#333333" stroke-width="0.5" stroke-linecap="round" stroke-linejoin="round"/>
<path d="M22.559 13.157V23.483" stroke="#333333" stroke-width="0.5" stroke-linecap="round" stroke-linejoin="round"/>
<path d="M3.44098 13.157V23.483" stroke="#333333" stroke-width="0.5" stroke-linecap="round" stroke-linejoin="round"/>
<path d="M9.64001 12.623V23.483" stroke="#333333" stroke-width="0.5" stroke-linecap="round" stroke-linejoin="round"/>
<path d="M8.20001 18.418V19.778" stroke="#333333" stroke-width="0.5" stroke-linecap="round" stroke-linejoin="round"/>
<path d="M20.412 18.078L16.512 21.977" stroke="#333333" stroke-width="0.5" stroke-linecap="round" stroke-linejoin="round"/>
<path d="M20.412 20.392L18.826 21.978" stroke="#333333" stroke-width="0.5" stroke-linecap="round" stroke-linejoin="round"/>
<path d="M24 23.483H2.00098V24.999H24V23.483Z" stroke="#333333" stroke-width="0.5" stroke-linecap="round" stroke-linejoin="round"/>
</svg>
