<svg width="26" height="26" viewBox="0 0 26 26" fill="none" xmlns="http://www.w3.org/2000/svg">
<path d="M8.07394 4.19699H4.91394V1.03699" stroke="#333333" stroke-width="0.5" stroke-linecap="round" stroke-linejoin="round"/>
<path d="M24.611 16.042C24.016 18.3162 22.7661 20.3655 21.0166 21.9355C19.2671 23.5056 17.095 24.5272 14.7699 24.8736C12.4449 25.22 10.0693 24.8759 7.93812 23.8839C5.80694 22.892 4.01403 21.296 2.78198 19.294" stroke="#333333" stroke-width="0.5" stroke-linecap="round" stroke-linejoin="round"/>
<path d="M5.22595 3.85799C6.50967 2.76651 8.00886 1.95762 9.62593 1.48397C11.243 1.01033 12.9417 0.882549 14.6114 1.10895C16.2811 1.33536 17.8845 1.91087 19.317 2.79802C20.7496 3.68517 21.9792 4.86408 22.926 6.25799" stroke="#333333" stroke-width="0.5" stroke-linecap="round" stroke-linejoin="round"/>
<path d="M1.31201 10.268C1.67693 8.7029 2.35376 7.22749 3.30201 5.92999" stroke="#333333" stroke-width="0.5" stroke-linecap="round" stroke-linejoin="round"/>
<path d="M14.95 14.326L9.276 17.378L1 13.036L7.018 9.87999" stroke="#333333" stroke-width="0.5" stroke-linecap="round" stroke-linejoin="round"/>
<path d="M10.896 7.84899L16.724 4.78899L25 9.12999L19.242 12.191" stroke="#333333" stroke-width="0.5" stroke-linecap="round" stroke-linejoin="round"/>
<path d="M17.542 11.306L20.587 9.70599C20.128 9.46699 20.035 9.12799 20.587 8.83799L17.275 7.10399C17.0188 7.23487 16.7352 7.30311 16.4475 7.30311C16.1598 7.30311 15.8762 7.23487 15.62 7.10399L12.557 8.71099" stroke="#333333" stroke-width="0.5" stroke-linecap="round" stroke-linejoin="round"/>
<path d="M8.60006 10.786L5.40906 12.46C5.96106 12.75 5.87106 13.087 5.41406 13.326L8.72506 15.062C8.98028 14.9314 9.26287 14.8633 9.54956 14.8633C9.83625 14.8633 10.1188 14.9314 10.3741 15.062L13.4271 13.462" stroke="#333333" stroke-width="0.5" stroke-linecap="round" stroke-linejoin="round"/>
<path d="M14.95 14.326L6.62903 9.66199L10.468 7.64899L19.243 12.192V16.337L14.95 18.586V14.326Z" stroke="#333333" stroke-width="0.5" stroke-linecap="round" stroke-linejoin="round"/>
<path d="M14.95 16.317L9.276 19.294L1 14.949" stroke="#333333" stroke-width="0.5" stroke-linecap="round" stroke-linejoin="round"/>
<path d="M24.9999 11.045L19.2419 14.066" stroke="#333333" stroke-width="0.5" stroke-linecap="round" stroke-linejoin="round"/>
<path d="M19.2419 15.982L24.9999 12.961V9.12999" stroke="#333333" stroke-width="0.5" stroke-linecap="round" stroke-linejoin="round"/>
<path d="M1 13.036V16.868L9.276 21.209L14.95 18.232" stroke="#333333" stroke-width="0.5" stroke-linecap="round" stroke-linejoin="round"/>
</svg>
