<svg width="34" height="34" viewBox="0 0 34 34" fill="none" xmlns="http://www.w3.org/2000/svg">
<path d="M1 1H4.259C4.65942 0.999978 5.047 1.1413 5.35343 1.39907C5.65985 1.65683 5.86546 2.01449 5.934 2.409L9.075 20.5" stroke="white" stroke-width="2" stroke-linecap="round" stroke-linejoin="round"/>
<path d="M11.947 6.326H31.161C31.4115 6.32604 31.659 6.38144 31.8856 6.48824C32.1122 6.59505 32.3124 6.75062 32.4719 6.94382C32.6313 7.13703 32.7461 7.36309 32.8081 7.60584C32.87 7.84859 32.8775 8.10202 32.83 8.348L30.752 19.119C30.6778 19.5074 30.4706 19.8577 30.166 20.1098C29.8614 20.3618 29.4784 20.4998 29.083 20.5H12.409C11.3676 20.5001 10.3392 20.7325 9.39899 21.1804C8.45875 21.6283 7.6303 22.2803 6.97403 23.089L4.32703 26.347H29.673" stroke="white" stroke-width="2" stroke-linecap="round" stroke-linejoin="round"/>
<path d="M29.6729 33C31.5104 33 32.9999 31.5105 32.9999 29.673C32.9999 27.8355 31.5104 26.346 29.6729 26.346C27.8355 26.346 26.3459 27.8355 26.3459 29.673C26.3459 31.5105 27.8355 33 29.6729 33Z" stroke="white" stroke-width="2" stroke-linecap="round" stroke-linejoin="round"/>
<path d="M4.327 33C6.16445 33 7.654 31.5105 7.654 29.673C7.654 27.8355 6.16445 26.346 4.327 26.346C2.48955 26.346 1 27.8355 1 29.673C1 31.5105 2.48955 33 4.327 33Z" stroke="white" stroke-width="2" stroke-linecap="round" stroke-linejoin="round"/>
</svg>
