<svg width="58" height="59" viewBox="0 0 58 59" fill="none" xmlns="http://www.w3.org/2000/svg">
<path d="M28.684 41.9129L1.866 57.6879H55.502L28.684 41.9129Z" stroke="#888888" stroke-width="2" stroke-linecap="round" stroke-linejoin="round"/>
<path d="M1.866 57.6879V37.9769L18.621 47.8319L1.866 57.6879Z" stroke="#888888" stroke-width="2" stroke-linecap="round" stroke-linejoin="round"/>
<path d="M55.502 37.9769V57.6879L38.747 47.8319L55.502 37.9769Z" stroke="#888888" stroke-width="2" stroke-linecap="round" stroke-linejoin="round"/>
<path d="M13.624 44.8919V16.0639H43.744V44.8919" stroke="#888888" stroke-width="2" stroke-linecap="round" stroke-linejoin="round"/>
<path d="M13.624 19.5989L1.866 26.9659V57.6879H55.502V26.9659L43.744 19.5989" stroke="#888888" stroke-width="2" stroke-linecap="round" stroke-linejoin="round"/>
<path d="M38.1 16.0629L28.684 10.1629L19.266 16.0629" stroke="#888888" stroke-width="2" stroke-linecap="round" stroke-linejoin="round"/>
<path d="M31.795 22.9029H18.944V28.1319H31.795V22.9029Z" stroke="#888888" stroke-width="2" stroke-linecap="round" stroke-linejoin="round"/>
<path d="M18.945 32.8319L38.441 32.9149" stroke="#888888" stroke-width="2" stroke-linecap="round" stroke-linejoin="round"/>
<path d="M18.945 37.3729H38.424" stroke="#888888" stroke-width="2" stroke-linecap="round" stroke-linejoin="round"/>
<path d="M6.264 15.3539L1 10.6269" stroke="#888888" stroke-width="2" stroke-linecap="round" stroke-linejoin="round"/>
<path d="M16.543 9.25289L13.52 1.96289" stroke="#888888" stroke-width="2" stroke-linecap="round" stroke-linejoin="round"/>
<path d="M51.104 15.3539L56.368 10.6269" stroke="#888888" stroke-width="2" stroke-linecap="round" stroke-linejoin="round"/>
<path d="M40.827 9.25289L43.85 1.96289" stroke="#888888" stroke-width="2" stroke-linecap="round" stroke-linejoin="round"/>
</svg>
