<svg width="22" height="21" viewBox="0 0 22 21" fill="none" xmlns="http://www.w3.org/2000/svg">
<path d="M15.881 7.66097e-06H2.62604C2.41156 -0.000123804 2.19915 0.0420253 2.00096 0.124045C1.80278 0.206064 1.62271 0.326345 1.47104 0.478009C1.31938 0.629673 1.1991 0.809746 1.11708 1.00793C1.03506 1.20611 0.992911 1.41852 0.993042 1.63301V12.533C0.993042 12.9661 1.16509 13.3815 1.47134 13.6877C1.77758 13.994 2.19294 14.166 2.62604 14.166H6.97304V17.075L10.853 14.166H15.881C16.096 14.1665 16.3089 14.1246 16.5077 14.0427C16.7064 13.9607 16.887 13.8403 17.039 13.6884C17.1911 13.5365 17.3117 13.3561 17.3939 13.1575C17.4761 12.9589 17.5183 12.746 17.518 12.531V1.63301C17.5182 1.41818 17.4759 1.20545 17.3936 1.007C17.3114 0.808558 17.1907 0.628308 17.0386 0.476591C16.8865 0.324874 16.706 0.204677 16.5073 0.122893C16.3087 0.0411098 16.0959 -0.000650538 15.881 7.66097e-06V7.66097e-06Z" fill="#FF7900"/>
<path d="M19.36 3.858C19.5749 3.85761 19.7877 3.89962 19.9863 3.98164C20.1849 4.06365 20.3654 4.18405 20.5174 4.33594C20.6694 4.48783 20.7899 4.66822 20.872 4.86677C20.9542 5.06533 20.9963 5.27813 20.996 5.493V15.46C20.9959 15.6747 20.9535 15.8872 20.8712 16.0855C20.7889 16.2837 20.6683 16.4638 20.5164 16.6155C20.3645 16.7671 20.1841 16.8874 19.9857 16.9693C19.7873 17.0512 19.5747 17.0933 19.36 17.093H15.269V20.003L11.389 17.093" stroke="#FF7900" stroke-width="0.75" stroke-linecap="round" stroke-linejoin="round"/>
<path d="M4.11707 5.15701H14.1661" stroke="white" stroke-width="0.75" stroke-linecap="round"/>
<path d="M4.11804 8.91602H10.37" stroke="white" stroke-width="0.75" stroke-linecap="round"/>
</svg>
