<svg width="40" height="14" viewBox="0 0 40 14" fill="none" xmlns="http://www.w3.org/2000/svg">
<path d="M22.584 13.135C21.4069 13.1359 20.2401 12.9161 19.144 12.487L19.712 9.84499C20.677 10.3651 21.7558 10.6379 22.852 10.639H22.936C23.877 10.626 24.826 10.249 24.826 9.43899C24.839 8.92199 24.395 8.50999 23.187 7.91899C22.002 7.33899 20.426 6.36499 20.426 4.60199C20.425 2.21799 22.603 0.554993 25.71 0.554993C26.7211 0.557643 27.7236 0.741202 28.67 1.09699L28.116 3.73899C27.3226 3.3643 26.4564 3.16933 25.579 3.16799C25.385 3.16799 25.189 3.17799 24.997 3.19699C24.084 3.31799 23.676 3.79699 23.676 4.21499C23.676 4.72699 24.331 5.06999 25.159 5.50399C26.474 6.19299 28.11 7.04999 28.103 9.06499L28.17 8.95899C28.157 11.496 25.993 13.134 22.66 13.134L22.584 13.135ZM31.34 13.03H28.01L32.754 1.70499C32.8602 1.44096 33.0425 1.21444 33.2777 1.0542C33.5129 0.893959 33.7904 0.807219 34.075 0.804993H36.717L39.279 13.026H36.347L35.964 11.203H31.987L31.34 13.026V13.03ZM34.485 4.10999L32.819 8.69399H35.448L34.485 4.10999ZM16.885 12.99H13.712L16.356 0.766993H19.526L16.884 12.988L16.885 12.99ZM9.948 12.95H6.503L3.975 3.18399C3.95234 2.95574 3.87099 2.73723 3.73886 2.54973C3.60674 2.36223 3.42833 2.21211 3.221 2.11399C2.22903 1.6409 1.18146 1.29451 0.102997 1.08299L0.182997 0.725993H5.56C5.91248 0.724167 6.25399 0.848458 6.52284 1.07641C6.79169 1.30437 6.97016 1.62096 7.026 1.96899L8.348 9.03799L11.638 0.725993H15.074L9.947 12.948L9.948 12.95Z" fill="#2A2A6C"/>
</svg>
